<svg xmlns="http://www.w3.org/2000/svg" viewBox="0 0 100.71 112.82"><defs><style>.cls-1{fill:#86c3d0;}.cls-2{fill:#fff;}.cls-3{font-size:12px;fill:#1d1d1b;font-family:MyriadPro-Regular, Myriad Pro;}.cls-4{letter-spacing:-0.01em;}.cls-5{letter-spacing:0.04em;}</style></defs><g id="API"><path class="cls-1" d="M50.35,13.37a43,43,0,1,0,43.05,43A43,43,0,0,0,50.35,13.37Z"/><path class="cls-2" d="M40.82,64.68a8.39,8.39,0,1,1,8.39-8.39A8.39,8.39,0,0,1,40.82,64.68Zm0-15a6.65,6.65,0,1,0,6.65,6.65A6.66,6.66,0,0,0,40.82,49.64Z"/><path class="cls-2" d="M62.15,79a6.14,6.14,0,1,1,6.13-6.14A6.15,6.15,0,0,1,62.15,79Zm0-10.53a4.4,4.4,0,1,0,4.39,4.39A4.4,4.4,0,0,0,62.15,68.5Z"/><path class="cls-2" d="M62.15,46.06a6.14,6.14,0,1,1,6.13-6.13A6.14,6.14,0,0,1,62.15,46.06Zm0-10.53a4.4,4.4,0,1,0,4.39,4.4A4.4,4.4,0,0,0,62.15,35.53Z"/><path class="cls-2" d="M46.14,51.85a.86.86,0,0,1-.75-.43.87.87,0,0,1,.3-1.19L58,42.89a.87.87,0,0,1,.89,1.5L46.58,51.72A.8.8,0,0,1,46.14,51.85Z"/><path class="cls-2" d="M58.42,69.82A.89.89,0,0,1,58,69.7L45.69,62.36a.87.87,0,0,1,.89-1.49L58.86,68.2a.88.88,0,0,1,.3,1.2A.86.86,0,0,1,58.42,69.82Z"/></g><g id="HOSTING"><text class="cls-3" transform="translate(17.79 -4.98)"><tspan class="cls-4">C</tspan><tspan x="6.88" y="0">allout H</tspan><tspan class="cls-5" x="45.86" y="0">T</tspan><tspan x="52.28" y="0">TP</tspan></text></g></svg>